<svg xmlns="http://www.w3.org/2000/svg" width="320" height="320"><path d="M187.667 36.667c-.367.366-.667 4.413-.667 8.991 0 7.242-.26 8.488-2 9.574-1.1.687-2 2.265-2 3.508 0 1.41-2.28 4.606-6.072 8.509C170.561 73.804 165 81.115 165 82.93c0 .589-.378 1.07-.84 1.07-.462 0-1.414 1.912-2.116 4.25-.702 2.338-1.725 5.479-2.273 6.981-.549 1.501-.713 3.864-.365 5.25.622 2.48.784 2.519 10.554 2.519 5.536 0 10.195.442 10.54 1 .34.55 1.989 1 3.664 1 3.697 0 11.946 4.011 16.537 8.042 5.779 5.074 5.904 4.878 6.718-10.542.32-6.05.941-12.575 1.381-14.5.732-3.201.629-19.005-.162-25-.182-1.375-1.075-4.242-1.984-6.372-.91-2.13-1.654-4.061-1.654-4.291 0-1.617-6.562-9.123-11.878-13.587-3.4-2.854-4.329-3.209-5.455-2.083m-5.973 11.972c-.799.799.104 2.361 1.365 2.361.518 0 .941-.675.941-1.5 0-1.546-1.18-1.987-2.306-.861m28.752 13.448c-.369.598-.171 1.588.441 2.2.817.817 1.113.528 1.113-1.087 0-2.415-.519-2.787-1.554-1.113m-35.807.607c-1.126 1.126-.685 2.306.861 2.306.825 0 1.5-.423 1.5-.941 0-1.261-1.562-2.164-2.361-1.365m-6.056 6.172c-.431.697-.513 1.537-.183 1.867.895.895 1.871-.421 1.387-1.871-.338-1.016-.574-1.016-1.204.004M228 105c0 .55.45 1 1 1s1-.45 1-1-.45-1-1-1-1 .45-1 1m-76.09 3.332c-3.625 1.213-7.38 2.995-8.345 3.96-.965.965-3.174 2.475-4.91 3.355-4.885 2.477-16.946 15.625-20.303 22.134-1.66 3.219-4.05 7.848-5.311 10.286-1.261 2.438-2.616 5.108-3.011 5.933-1.209 2.526-3.47 6.42-4.646 8-.613.825-1.423 2.792-1.799 4.371-.376 1.579-1.336 3.523-2.133 4.32-.797.797-1.744 2.655-2.104 4.129-.361 1.474-.932 2.905-1.269 3.18-.337.275-3.756 6.889-7.596 14.698-3.841 7.809-7.234 14.222-7.541 14.25-.307.029-1.882-1.713-3.5-3.871C76.101 198.621 68.111 193 65.119 193c-1.101 0-2.305-.492-2.677-1.094-.976-1.579-12.435.027-17.136 2.402-1.543.78-3.33 1.23-3.971 1-.641-.23-1.459.507-1.818 1.637-.358 1.13-1.184 2.072-1.834 2.094-2.433.079-10.677 14.694-13.216 23.426-2.322 7.989-2.139 25.614.338 32.535 3.021 8.442 6.172 13.646 10.239 16.915 4.46 3.584 10.599 7.116 13.408 7.713 13.652 2.905 18.489 3.048 25.86.766 8.568-2.653 14.945-6.065 19.474-10.418l4.286-4.12 3.223 2.822c9.962 8.722 22.004 13.489 33.705 13.342 8.031-.1 17.766-1.813 20.715-3.644 1.218-.757 2.905-1.376 3.75-1.376.844 0 1.535-.413 1.535-.917s1.076-1.291 2.391-1.75c2.69-.937 10.031-9.767 13.164-15.833 1.136-2.2 2.545-4.9 3.13-6 .586-1.1 2.081-4.025 3.324-6.5a519.748 519.748 0 015.125-9.852c1.576-2.943 2.866-5.732 2.866-6.198 0-.466 1.092-2.025 2.427-3.466l2.427-2.618 5.323 1.704c2.928.937 6.836 2.334 8.685 3.105 11.247 4.683 32.309 5.748 43.783 2.213 3.77-1.162 7.08-2.423 7.355-2.802.275-.38 2.075-1.425 4-2.323 6.842-3.192 19.424-16.848 23.737-25.763 6.856-14.17 7.564-16.29 8.45-25.299.977-9.952.189-27.35-1.28-28.259-.499-.308-.907-1.207-.907-1.997s-1.575-4.846-3.5-9.014c-1.925-4.167-3.5-7.994-3.5-8.504a.92.92 0 00-.908-.927c-.5 0-2.969-2.003-5.488-4.45-7.139-6.939-14.207-10.707-26.604-14.184-8.003-2.244-22.742-1.419-30 1.68-3.025 1.292-5.725 2.598-6 2.903-.275.305-1.666 1.154-3.09 1.886-1.425.733-4.114 2.632-5.975 4.22l-3.384 2.889-2.526-2.331c-1.389-1.281-3.988-3.166-5.775-4.187-1.787-1.022-3.25-2.21-3.25-2.642 0-.431-.681-.784-1.514-.784-.832 0-2.295-.436-3.25-.968-8.312-4.637-27.065-5.468-38.326-1.7M208 110.5c0 1.375.45 2.5 1 2.5s1-1.125 1-2.5-.45-2.5-1-2.5-1 1.125-1 2.5m-36.531 25.563c-3.131.91-5.038 2.433-9.67 7.724-3.104 3.547-7.799 12.402-7.799 14.711 0 .861-.675 1.824-1.5 2.14-.825.317-1.5 1.254-1.5 2.083 0 1.703-4.101 9.602-5.25 10.112-.412.184-.76.859-.772 1.5-.012.642-.902 2.292-1.978 3.667s-1.966 3.486-1.978 4.691c-.012 1.205-.486 2.478-1.054 2.829-.567.35-1.986 2.668-3.153 5.149l-2.12 4.512 2.902 2.406c4.636 3.843 11.505 6.593 16.883 6.759 4.719.146 5.034-.007 6-2.902.561-1.681 1.807-4.252 2.77-5.715.963-1.462 1.75-3.349 1.75-4.194 0-.844.45-1.535 1-1.535s1-.9 1-2 .351-2 .779-2c.429 0 2.259-3.262 4.066-7.25 1.808-3.988 3.8-8.15 4.426-9.25 4.271-7.504 8.729-16.681 8.729-17.969 0-.842.394-1.531.875-1.531 1.292 0 4.021-6.107 3.424-7.662-.282-.736-1.092-1.338-1.799-1.338-.707 0-1.536-.651-1.842-1.448-.305-.796-2.406-1.946-4.669-2.555a349.697 349.697 0 01-5.302-1.461c-.653-.194-2.551.043-4.218.527m69.868 2.786c-4.467 3.259-8.912 9.205-11.701 15.651-.952 2.2-2.147 4.675-2.656 5.5-2.728 4.424-3.881 8.145-4.338 14-.711 9.104-1.871 13.725-5.105 20.335-1.542 3.152-2.622 5.913-2.4 6.135.222.222 2.57 1.333 5.216 2.467 6.475 2.775 14.623 2.728 20.581-.119 9.866-4.715 21.416-19.459 24.924-31.818a544.5 544.5 0 012.21-7.571c1.224-4.033 1.189-9.152-.068-9.929-.55-.34-1-1.652-1-2.915 0-2.543-6.005-10.982-8.927-12.546-1.024-.548-4.273-1.274-7.218-1.612-4.876-.56-5.728-.343-9.518 2.422m-67.878.218c-.363.586-.419 1.306-.126 1.6.717.716 2.667-.546 2.667-1.726 0-1.278-1.726-1.193-2.541.126m-67.38 16.516c.048 1.165.285 1.402.604.605.289-.722.253-1.585-.079-1.917-.332-.332-.568.258-.525 1.312M258 180.5c0 .825.45 1.5 1 1.5s1-.675 1-1.5-.45-1.5-1-1.5-1 .675-1 1.5m-34 3.5c0 1.1.45 2 1 2s1-.9 1-2-.45-2-1-2-1 .9-1 2m-135.417 3.866c-.431.697-.513 1.537-.183 1.867.895.895 1.871-.421 1.387-1.871-.338-1.016-.574-1.016-1.204.004m204.952 6.721c-.932 1.422-1.437 2.845-1.121 3.16.824.824 4.651-3.833 4.006-4.876-.786-1.272-1.018-1.134-2.885 1.716M78 196.583c0 .871.534 1.406 1.188 1.188 1.854-.618 2.161-2.771.395-2.771-.87 0-1.583.713-1.583 1.583m142 1.917c0 .825.45 1.5 1 1.5s1-.675 1-1.5-.45-1.5-1-1.5-1 .675-1 1.5m70.5 3.5c-.34.55-.141 1 .441 1s1.059-.45 1.059-1-.198-1-.441-1-.719.45-1.059 1m-6.5 9.5c0 .825.45 1.5 1 1.5s1-.675 1-1.5-.45-1.5-1-1.5-1 .675-1 1.5M54 223.162c-3.009 1.029-5.452 5.588-3.959 7.388.709.854.555 1.391-.515 1.802-.955.366-1.526 1.861-1.526 3.992 0 6.573 1.188 9.698 4.709 12.383 3.21 2.448 3.68 2.536 7.114 1.328 4.304-1.515 7.803-4.471 9.772-8.255 1.636-3.144 1.844-7.411.405-8.3-.55-.34-1-1.491-1-2.559S68.528 229 67.952 229c-.576 0-2.039-1.133-3.25-2.518C62.041 223.44 57.4 222 54 223.162M56 225c0 .55.45 1 1 1s1-.45 1-1-.45-1-1-1-1 .45-1 1m63.25 1.153c-.31 1.183-1.867 4.596-3.461 7.582-2.454 4.599-2.698 5.685-1.593 7.097 2.095 2.68 4.177 4.102 6.054 4.136.963.018 1.75.438 1.75.934 0 1.182 5.565 3.098 8.996 3.098 6.461 0 15.696-8.106 14.53-12.753-.543-2.163-.348-2.434 1.422-1.971 1.261.33 2.052.055 2.052-.713 0-1.223-23.947-9.563-27.46-9.563-.95 0-1.981.969-2.29 2.153m76.45 2.188c-.283.737-.147 1.935.302 2.662.664 1.074 1.102 1.036 2.343-.205 1.139-1.139 1.238-1.815.391-2.662-1.496-1.496-2.407-1.435-3.036.205m47.984 7.108c-4.834 1.724-7.017 3.715-10.369 9.458-2.334 3.998-2.684 5.701-2.704 13.15-.026 10.037 1.319 13.541 7.468 19.443 3.906 3.749 4.52 3.992 9.794 3.878 7.228-.157 12.127-1.286 12.127-2.794 0-.655 1.29-2.966 2.866-5.137 3.603-4.962 5.572-13.038 4.661-19.113-.736-4.914-2.411-9.334-3.536-9.334-.378 0-1.458-1.708-2.399-3.796-1.499-3.325-2.425-4.008-7.451-5.5-6.7-1.989-5.667-1.964-10.457-.255m-126.513 1.648c-.72 1.154-1.075 2.333-.788 2.619.686.686 3.617-2.267 3.617-3.645 0-1.742-1.422-1.227-2.829 1.026m4.829 3.344c0 .857.45 1.559 1 1.559s1-.423 1-.941-.45-1.219-1-1.559c-.55-.34-1 .084-1 .941m146.583 25.425c-.431.697-.513 1.537-.183 1.867.895.895 1.871-.421 1.387-1.871-.338-1.016-.574-1.016-1.204.004M96 272.441c0 .857.45 1.559 1 1.559s1-.423 1-.941-.45-1.219-1-1.559c-.55-.34-1 .084-1 .941m-6 3.059c0 .825.45 1.5 1 1.5s1-.675 1-1.5-.45-1.5-1-1.5-1 .675-1 1.5m19.565 4.395c-.305.493.075 1.137.843 1.431 1.466.563 2.592-.085 2.592-1.493 0-1.116-2.737-1.067-3.435.062M78 283c0 .55.45 1 1 1s1-.45 1-1-.45-1-1-1-1 .45-1 1" fill="undefined" fill-rule="evenodd"/></svg>